<?xml version="1.0" standalone="no"?>
<!DOCTYPE svg PUBLIC "-//W3C//DTD SVG 20010904//EN"
 "http://www.w3.org/TR/2001/REC-SVG-20010904/DTD/svg10.dtd">
<svg version="1.0" xmlns="http://www.w3.org/2000/svg"
 width="478.000000pt" height="479.000000pt" viewBox="0 0 478.000000 479.000000"
 preserveAspectRatio="xMidYMid meet">

<g transform="translate(0.000000,479.000000) scale(0.100000,-0.100000)"
fill="#000000" stroke="none">
<path d="M2200 4774 c-511 -60 -879 -202 -1258 -486 -117 -88 -333 -301 -424
-418 -271 -351 -436 -748 -494 -1190 -20 -155 -15 -501 10 -655 168 -1032 969
-1827 2006 -1991 161 -26 538 -26 700 -1 592 92 1111 386 1494 846 453 545
639 1289 497 1988 -127 622 -497 1170 -1022 1515 -298 197 -584 308 -944 369
-115 20 -471 34 -565 23z m520 -119 c491 -74 940 -302 1290 -655 274 -275 482
-636 580 -1003 58 -219 73 -339 74 -587 1 -239 -7 -326 -50 -518 -137 -615
-539 -1162 -1080 -1470 -372 -212 -722 -305 -1144 -306 -196 0 -290 9 -470 45
-936 190 -1675 985 -1794 1929 -22 177 -25 274 -15 442 27 470 195 911 485
1281 79 100 292 309 394 388 357 273 772 433 1230 473 91 8 398 -4 500 -19z"/>
<path d="M2372 4518 c-72 -24 -120 -117 -108 -211 12 -103 71 -157 171 -157
84 0 125 15 125 46 0 28 2 28 -46 8 -113 -47 -206 30 -191 159 8 62 29 95 74
113 34 15 89 10 146 -11 13 -6 17 -2 17 18 0 14 -7 28 -17 32 -33 12 -138 14
-171 3z"/>
<path d="M2112 4502 c-9 -7 -8 -31 8 -118 27 -147 26 -189 -2 -208 -23 -17
-75 -21 -94 -8 -23 15 -37 58 -58 176 -17 100 -24 121 -40 124 -10 2 -22 0
-27 -5 -10 -10 33 -259 51 -292 28 -53 112 -70 182 -37 65 31 71 80 33 284
-17 89 -25 101 -53 84z"/>
<path d="M2721 4393 c-30 -49 -76 -120 -102 -160 -26 -39 -45 -74 -41 -77 17
-18 49 -3 72 35 l25 40 54 -6 c88 -11 99 -18 107 -70 5 -37 12 -48 32 -56 13
-5 27 -7 29 -5 3 3 -10 89 -29 193 l-34 188 -30 3 c-27 2 -33 -5 -83 -85z m83
-68 c8 -39 14 -71 13 -72 -3 -2 -101 18 -106 23 -2 1 14 30 34 64 20 34 39 60
41 58 2 -3 10 -35 18 -73z"/>
<path d="M3017 4411 c-4 -16 5 -23 52 -42 31 -12 57 -23 59 -24 1 -1 -23 -64
-53 -141 -30 -76 -55 -144 -55 -150 0 -11 22 -24 39 -24 4 0 32 62 61 138 29
75 56 141 60 146 5 4 33 -1 64 -13 53 -20 56 -20 65 -2 10 18 -26 35 -270 126
-11 4 -18 0 -22 -14z"/>
<path d="M1653 4380 c-36 -8 -144 -50 -156 -60 -12 -10 120 -336 135 -332 57
13 152 60 179 88 29 30 34 42 37 97 9 134 -84 232 -195 207z m86 -73 c13 -12
32 -40 42 -62 38 -82 17 -140 -63 -178 -29 -14 -56 -23 -60 -19 -9 10 -98 234
-98 248 0 15 99 44 130 38 14 -3 36 -15 49 -27z"/>
<path d="M3322 4158 c-33 -62 -71 -132 -84 -156 -23 -43 -23 -43 -3 -58 18
-13 21 -13 33 3 20 28 162 292 162 302 0 9 -23 21 -40 21 -4 0 -35 -51 -68
-112z"/>
<path d="M1292 4209 c-80 -49 -83 -52 -69 -72 8 -12 51 -82 96 -155 l83 -133
41 25 c23 14 63 38 89 53 27 16 48 34 48 41 0 26 -29 22 -86 -12 -32 -20 -62
-36 -66 -36 -3 0 -20 23 -37 50 l-31 50 50 31 c48 29 61 51 41 64 -6 3 -33 -9
-61 -26 -28 -17 -52 -30 -53 -28 -36 54 -58 91 -55 93 2 2 31 20 66 40 51 31
61 41 51 52 -6 8 -14 14 -18 14 -4 0 -44 -23 -89 -51z"/>
<path d="M3505 4124 c-83 -43 -131 -127 -123 -214 6 -60 40 -102 106 -132 38
-17 50 -18 93 -8 85 21 159 117 159 207 0 116 -134 200 -235 147z m156 -65
c47 -50 36 -122 -30 -192 -60 -66 -128 -72 -175 -16 -34 40 -34 89 -1 145 57
97 148 125 206 63z"/>
<path d="M2100 4059 c-216 -39 -459 -135 -635 -252 -80 -52 -255 -198 -300
-248 -251 -282 -391 -573 -446 -924 -18 -114 -16 -388 5 -509 80 -472 337
-871 734 -1137 309 -207 673 -303 1054 -277 876 57 1566 795 1568 1675 1 808
-552 1491 -1348 1664 -148 32 -475 36 -632 8z m475 -39 c450 -52 857 -285
1125 -645 290 -389 393 -874 286 -1345 -144 -630 -643 -1112 -1288 -1242 -162
-33 -464 -32 -617 1 -158 34 -284 77 -416 142 -165 82 -289 172 -430 314 -233
234 -374 495 -447 828 -20 88 -23 132 -23 322 0 190 3 234 23 322 33 152 76
275 143 408 305 612 966 972 1644 895z"/>
<path d="M2313 3836 c-22 -8 -54 -23 -70 -34 -28 -20 -32 -20 -79 -6 -93 29
-182 7 -259 -66 -37 -35 -46 -38 -110 -42 -43 -3 -86 -13 -111 -26 -43 -22
-98 -79 -126 -130 -12 -22 -25 -32 -40 -32 -41 0 -123 -46 -161 -91 -33 -37
-67 -117 -67 -155 0 -6 -12 -15 -26 -18 -15 -4 -52 -33 -84 -64 -61 -61 -80
-108 -80 -194 0 -38 -5 -49 -40 -83 -42 -41 -80 -124 -80 -173 0 -15 6 -51 13
-80 14 -51 13 -53 -20 -118 -48 -96 -44 -186 13 -269 25 -37 25 -38 10 -99
-20 -77 -20 -90 0 -155 10 -36 30 -69 60 -101 40 -43 44 -52 44 -97 0 -102 61
-199 151 -240 21 -10 39 -23 39 -29 1 -39 36 -121 68 -156 39 -43 120 -88 160
-88 15 0 28 -10 40 -32 53 -99 145 -158 246 -158 55 0 61 -3 107 -44 78 -70
159 -90 252 -62 46 14 48 13 105 -17 80 -45 164 -45 248 -2 57 30 61 30 104
17 90 -27 193 1 264 73 32 31 41 35 89 35 107 0 198 54 246 147 16 33 26 40
72 50 100 24 166 89 192 191 12 48 18 56 64 82 91 52 134 125 135 232 0 45 4
54 40 90 72 72 96 170 66 269 -10 35 -9 44 15 87 56 102 55 190 -3 284 -29 46
-29 48 -15 89 21 58 19 145 -4 196 -11 23 -37 59 -59 80 -38 37 -41 43 -41 95
0 102 -46 178 -140 232 -39 22 -46 31 -58 78 -26 103 -88 165 -191 191 -48 12
-56 18 -82 65 -50 86 -132 132 -237 132 -48 0 -57 4 -89 35 -73 73 -165 98
-264 72 -51 -14 -56 -14 -78 4 -30 23 -114 49 -156 48 -17 0 -50 -6 -73 -13z
m163 -32 c61 -25 68 -34 42 -52 -13 -8 -46 -33 -75 -54 l-52 -40 -43 35 c-24
19 -58 44 -77 55 l-35 21 55 25 c63 30 129 33 185 10z m-311 -34 l26 -10 -30
-31 c-17 -17 -45 -50 -61 -74 l-30 -43 -67 28 c-38 16 -77 31 -87 35 -18 5
-17 8 10 37 56 59 165 86 239 58z m620 -9 c50 -22 107 -70 99 -82 -3 -5 -13
-9 -22 -9 -9 0 -46 -14 -80 -30 -35 -17 -66 -30 -68 -30 -2 0 -10 12 -18 28
-8 15 -33 48 -56 75 -42 47 -42 47 -18 56 38 16 120 12 163 -8z m-511 -46 c28
-18 61 -44 73 -57 l22 -23 -61 -73 c-54 -64 -63 -71 -79 -60 -9 7 -44 31 -77
54 l-59 41 35 49 c35 49 82 104 90 104 2 0 27 -16 56 -35z m379 -64 c37 -50
39 -56 22 -65 -9 -6 -45 -31 -78 -55 l-60 -43 -26 33 c-14 19 -43 53 -64 75
l-37 41 42 35 c24 20 59 45 78 56 l34 21 24 -22 c14 -12 43 -46 65 -76z m-813
4 c0 -4 -7 -20 -17 -38 -9 -18 -24 -54 -34 -82 -14 -38 -22 -49 -36 -46 -10 2
-53 8 -96 15 l-78 11 31 47 c39 59 112 98 182 98 26 0 48 -2 48 -5z m1250 -17
c39 -20 110 -95 110 -117 0 -7 -179 -36 -184 -29 -2 1 -19 40 -38 86 l-36 82
52 0 c34 0 67 -8 96 -22z m-1097 -22 c32 -14 57 -29 55 -34 -62 -148 -74 -171
-88 -165 -8 3 -48 18 -88 32 -84 30 -83 28 -31 140 28 62 30 63 62 58 17 -3
58 -17 90 -31z m954 -36 c48 -97 47 -100 -53 -136 l-85 -32 -10 27 c-5 14 -23
53 -40 85 -16 32 -28 60 -26 62 2 2 32 17 68 34 92 43 107 39 146 -40z m-489
-38 c28 -34 52 -66 52 -71 0 -4 -27 -31 -60 -60 -50 -44 -62 -50 -73 -39 -8 7
-35 32 -61 56 l-47 43 56 70 c31 39 62 68 68 66 7 -2 36 -31 65 -65z m-290
-30 l63 -44 -21 -32 c-11 -17 -30 -48 -42 -68 -12 -21 -24 -38 -28 -38 -3 0
-36 16 -72 35 l-67 36 20 52 c29 73 58 118 72 110 7 -3 40 -26 75 -51z m575
-16 c21 -41 37 -80 37 -87 -1 -13 -110 -74 -132 -74 -6 0 -29 29 -52 65 l-43
65 71 52 c39 29 74 53 77 53 3 0 22 -33 42 -74z m-1219 -78 c-8 -35 -14 -80
-14 -100 0 -37 -1 -38 -40 -38 -21 0 -62 -5 -90 -11 -28 -6 -54 -9 -56 -6 -10
9 15 79 41 117 27 38 88 78 139 91 17 4 31 7 32 8 0 1 -5 -27 -12 -61z m187
51 c50 -11 51 -11 45 -43 -4 -17 -11 -60 -17 -96 l-11 -65 -95 9 -96 10 6 72
c10 110 18 124 71 124 25 0 68 -5 97 -11z m1512 -3 c8 -20 30 -176 26 -180 -2
-2 -48 -7 -101 -11 l-98 -7 0 29 c-1 15 -7 57 -15 93 -7 36 -12 66 -11 68 7 7
96 20 142 21 36 1 54 -3 57 -13z m146 -35 c41 -29 71 -73 87 -128 l14 -45 -33
6 c-17 4 -62 10 -98 13 l-66 6 -7 71 c-3 39 -9 83 -12 98 l-6 28 45 -14 c25
-7 59 -23 76 -35z m-1488 -12 c62 -24 80 -35 76 -48 -43 -152 -41 -149 -107
-132 -19 5 -48 12 -64 16 -28 6 -29 6 -22 63 7 63 24 132 32 132 2 0 41 -14
85 -31z m489 -79 c-1 -3 -21 -26 -45 -53 l-44 -48 -55 36 c-31 20 -56 38 -56
41 0 3 19 34 42 69 l41 63 59 -51 c32 -28 58 -54 58 -57z m639 38 c7 -40 15
-83 18 -95 4 -19 -2 -23 -66 -37 -38 -9 -74 -16 -80 -16 -5 0 -19 30 -32 68
-12 37 -24 72 -26 78 -4 10 130 68 168 73 3 1 11 -32 18 -71z m-435 5 c20 -32
36 -62 36 -68 0 -5 -24 -24 -53 -42 l-52 -32 -47 47 -48 47 56 53 c30 28 59
52 64 52 5 0 25 -26 44 -57z m-521 -39 c80 -40 78 -38 44 -102 -16 -31 -31
-58 -32 -59 -2 -3 -114 32 -119 38 -5 5 28 122 40 140 7 12 8 12 67 -17z m768
-44 c15 -44 19 -73 13 -79 -5 -5 -32 -16 -61 -24 l-52 -16 -31 56 c-16 31 -30
59 -30 62 0 7 120 71 132 71 4 0 17 -32 29 -70z m-377 -34 l35 -44 -40 -26
c-44 -30 -59 -28 -104 8 l-30 25 40 40 c21 23 44 41 51 41 6 0 28 -20 48 -44z
m-184 -46 c0 -3 -15 -23 -33 -44 l-33 -39 -52 17 -52 18 31 58 31 58 54 -31
c29 -18 54 -34 54 -37z m405 9 c15 -28 23 -54 19 -58 -12 -10 -93 -35 -97 -30
-1 2 -17 20 -35 40 l-33 36 47 32 c26 17 53 31 59 31 7 0 24 -23 40 -51z m753
10 l52 -10 0 -47 c-1 -48 -14 -129 -22 -138 -5 -5 -176 21 -182 27 -2 2 -1 43
2 91 6 106 3 104 150 77z m-1904 -75 c4 -47 5 -88 2 -91 -4 -5 -154 -32 -177
-33 -11 0 -32 171 -23 180 16 15 77 28 135 29 l56 1 7 -86z m176 80 l35 -6 -3
-76 c-2 -43 -5 -78 -6 -79 -1 -2 -39 -5 -83 -9 l-80 -5 -6 38 c-4 21 -7 62 -7
91 l0 52 58 0 c31 0 73 -3 92 -6z m1555 -66 c-10 -116 -5 -110 -93 -102 -42 4
-78 8 -80 9 -2 2 -6 37 -9 78 l-6 76 34 4 c19 2 63 5 98 5 l63 2 -7 -72z
m-1413 40 c29 -6 57 -15 62 -19 5 -5 4 -33 -4 -70 l-13 -61 -36 6 c-20 3 -48
6 -63 6 l-28 0 0 75 c0 84 -3 82 82 63z m1202 -25 c3 -21 6 -54 6 -74 l0 -36
-62 -6 c-35 -3 -64 -4 -66 -2 -8 7 -33 118 -28 122 6 7 104 31 127 32 11 1 18
-11 23 -36z m-1741 -55 c3 -40 8 -81 12 -90 5 -12 1 -20 -11 -24 -19 -7 -128
-50 -151 -60 -27 -12 -18 81 15 145 16 33 96 100 118 101 7 0 13 -29 17 -72z
m2245 58 c64 -34 111 -109 119 -192 l6 -54 -60 29 c-32 16 -71 33 -86 36 -15
4 -29 11 -32 15 -5 8 15 180 22 180 2 0 16 -6 31 -14z m-1208 -22 l40 -27 -37
-27 c-35 -26 -38 -27 -72 -13 -20 8 -37 16 -39 18 -4 3 58 75 64 75 3 0 22
-12 44 -26z m203 -10 c16 -19 27 -37 25 -39 -2 -3 -20 -11 -39 -19 -35 -14
-37 -14 -69 13 l-34 28 39 26 c22 15 42 27 45 27 3 0 18 -16 33 -36z m-537 10
c30 -8 54 -17 54 -19 0 -3 -10 -25 -22 -51 -22 -44 -24 -46 -58 -40 -19 3 -43
6 -52 6 -14 0 -15 6 -8 33 4 17 11 44 14 60 7 32 4 31 72 11z m872 -41 c6 -31
11 -58 9 -59 -1 -1 -25 -5 -52 -8 l-50 -7 -21 49 -21 49 46 16 c73 24 76 23
89 -40z m-737 -4 c45 -16 44 -14 19 -48 -16 -24 -29 -31 -53 -31 -53 0 -61 11
-41 53 19 41 25 42 75 26z m597 -28 c19 -39 19 -39 -2 -45 -47 -13 -71 -6 -94
27 l-22 32 32 12 c55 19 66 16 86 -26z m-278 -19 c0 -4 -14 -13 -31 -19 -26
-10 -37 -9 -61 3 l-30 15 33 24 32 24 28 -20 c16 -11 29 -24 29 -27z m-207 5
l29 -12 -25 -24 c-20 -18 -32 -22 -56 -16 -36 8 -36 9 -13 40 19 28 26 29 65
12z m367 -17 c15 -21 17 -30 8 -30 -7 0 -22 -3 -33 -6 -13 -3 -32 3 -49 17
l-29 23 34 12 c47 17 45 18 69 -16z m-271 -24 l24 -13 -29 -10 c-16 -5 -40 -7
-54 -3 l-24 6 24 17 c29 20 28 20 59 3z m165 -5 c16 -18 16 -19 -8 -23 -13 -3
-35 1 -47 8 l-24 13 25 10 c34 13 35 13 54 -8z m-784 -59 l0 -68 -61 -13 c-34
-7 -65 -9 -69 -4 -11 12 -32 132 -25 143 3 6 40 10 81 10 l74 0 0 -68z m145
31 c-11 -65 -15 -71 -48 -78 -18 -4 -40 -9 -49 -11 -16 -5 -18 3 -18 60 l0 66
60 0 61 0 -6 -37z m1175 -29 l0 -67 -52 7 c-29 4 -53 8 -54 9 -1 1 -5 28 -9
60 l-7 57 61 0 61 0 0 -66z m177 58 c8 -5 7 -26 -6 -82 -19 -84 -20 -84 -110
-60 -41 11 -43 13 -37 42 3 17 6 48 6 69 l0 39 68 0 c37 0 72 -4 79 -8z
m-1677 -56 c23 -110 24 -106 -60 -132 -41 -13 -75 -22 -76 -21 -1 1 -16 41
-32 89 l-31 87 52 10 c142 29 134 31 147 -33z m450 44 c0 -6 -6 -26 -14 -44
-12 -29 -19 -34 -55 -38 l-41 -4 6 36 c3 19 7 41 9 48 5 15 95 17 95 2z m906
-35 c3 -25 4 -48 1 -51 -3 -3 -21 -2 -40 1 -30 6 -38 14 -51 46 -9 22 -16 42
-16 44 0 3 22 5 49 5 l50 0 7 -45z m467 31 c37 -7 70 -16 74 -19 5 -5 -50
-171 -62 -184 -1 -2 -36 9 -79 23 -69 24 -77 29 -72 48 3 11 11 49 18 84 13
71 10 70 121 48z m-1275 -4 c22 -14 -24 -62 -59 -62 -32 0 -35 7 -17 45 11 26
48 34 76 17z m688 -27 c18 -45 19 -43 -20 -36 -20 4 -43 17 -55 33 -23 29 -17
36 32 37 23 1 31 -5 43 -34z m-602 -6 c-10 -11 -30 -19 -47 -19 l-30 0 22 24
c15 16 29 22 47 18 24 -4 24 -5 8 -23z m241 21 c4 -6 -7 -10 -27 -10 -25 0
-29 3 -18 10 19 13 37 13 45 0z m254 -18 l20 -28 -32 4 c-18 2 -40 12 -50 21
-18 15 -18 16 5 22 12 4 26 7 30 8 4 1 16 -12 27 -27z m-1328 -65 c14 -39 29
-80 33 -89 6 -13 2 -20 -15 -27 -19 -7 -120 -53 -151 -69 -10 -5 -43 63 -61
126 -16 52 -16 52 8 68 28 18 134 63 150 64 6 0 22 -33 36 -73z m919 64 c0 -5
-10 -11 -22 -15 -36 -9 -41 -7 -28 9 13 16 50 21 50 6z m314 -6 c20 -15 20
-15 0 -15 -11 0 -29 7 -40 15 -19 14 -19 14 1 14 11 0 29 -6 39 -14z m1009
-27 c37 -17 67 -37 67 -45 0 -19 -59 -171 -69 -177 -4 -3 -28 5 -52 18 -25 12
-63 30 -86 39 l-42 16 30 83 c16 46 32 89 34 96 6 16 26 11 118 -30z m-1039
-29 c195 -58 345 -215 391 -410 54 -230 -53 -480 -255 -599 -224 -131 -490
-100 -673 78 -114 111 -167 238 -167 397 0 155 43 264 149 377 145 155 358
215 555 157z m-519 -23 c-10 -14 -21 -26 -25 -26 -5 0 -15 -3 -24 -6 -13 -5
-14 -2 -5 24 8 22 18 32 37 34 36 5 36 4 17 -26z m66 13 c-13 -11 -26 -17 -29
-14 -8 8 20 35 37 35 12 -1 11 -5 -8 -21z m623 2 c17 -19 17 -19 -3 -14 -11 3
-26 11 -32 19 -19 23 15 18 35 -5z m98 -16 c16 -34 3 -43 -29 -19 -37 28 -40
44 -9 44 18 0 30 -8 38 -25z m-875 -17 c-8 -19 -25 -37 -43 -44 -30 -13 -30
-13 -26 19 6 52 10 57 47 57 l35 0 -13 -32z m970 18 c2 -2 7 -20 10 -40 l6
-36 -34 14 c-31 13 -47 34 -48 65 -1 10 7 12 31 7 17 -3 33 -8 35 -10z m-1065
-40 c-3 -38 -8 -45 -39 -60 -20 -9 -38 -14 -41 -11 -3 3 -6 27 -6 52 -1 45 1
48 29 54 59 13 60 12 57 -35z m-694 -72 l29 -71 -26 -16 c-15 -8 -47 -34 -73
-56 -29 -26 -49 -37 -53 -31 -14 23 -17 128 -5 165 7 21 29 56 48 77 32 36 37
38 44 22 4 -11 20 -51 36 -90z m1851 100 c30 -6 31 -9 31 -55 0 -27 -2 -49 -5
-49 -16 0 -75 30 -75 38 0 5 -3 24 -6 41 -7 34 -2 36 55 25z m717 -26 c15 -18
34 -49 42 -68 17 -40 18 -133 3 -173 l-11 -29 -47 42 c-26 23 -59 49 -74 57
l-26 16 33 77 c19 43 34 85 34 94 0 25 16 19 46 -16z m-1992 -9 c14 -73 9 -85
-41 -107 l-48 -21 -19 60 c-10 33 -15 63 -12 66 5 5 89 30 107 32 4 1 9 -13
13 -30z m1435 -1 c19 -7 22 -13 18 -37 -3 -16 -12 -42 -19 -59 l-13 -30 -45
22 c-25 12 -45 27 -44 34 1 6 2 30 3 52 l1 41 38 -7 c20 -4 48 -11 61 -16z
m-1568 -73 c10 -33 19 -62 19 -65 0 -6 -105 -60 -115 -60 -6 0 -77 141 -73
145 10 8 125 43 137 42 7 -1 22 -29 32 -62z m371 33 c-18 -19 -22 -20 -22 -6
0 9 8 21 17 27 27 15 29 3 5 -21z m879 0 c9 -17 8 -18 -9 -9 -24 13 -38 43
-16 34 8 -3 19 -14 25 -25z m456 1 c32 -12 59 -23 61 -24 3 -3 -56 -125 -65
-135 -7 -8 -113 53 -113 65 0 32 32 115 45 115 8 0 40 -10 72 -21z m-1387 -14
c0 -8 -10 -25 -22 -37 l-23 -23 -3 24 c-3 15 3 30 14 38 23 17 34 16 34 -2z
m994 5 c19 -7 26 -17 26 -35 0 -29 -11 -32 -32 -7 -15 17 -31 52 -23 52 2 0
15 -4 29 -10z m-1471 -95 l37 -74 -68 -44 c-45 -30 -71 -41 -79 -35 -7 5 -33
41 -60 80 -45 66 -47 70 -28 81 29 18 139 66 150 67 6 0 27 -34 48 -75z m373
-3 c-29 -30 -33 -28 -42 16 -6 29 -4 33 27 46 33 14 34 14 37 -11 3 -18 -5
-34 -22 -51z m1212 14 c2 -20 0 -36 -5 -36 -20 1 -51 38 -55 66 l-4 31 30 -12
c25 -11 32 -20 34 -49z m444 29 c109 -45 108 -42 48 -129 -32 -46 -57 -73 -64
-69 -26 16 -121 76 -125 80 -7 5 62 143 71 143 4 0 36 -11 70 -25z m-1722 -54
c0 -31 -6 -44 -26 -60 -35 -28 -40 -27 -53 10 -16 47 -14 54 22 72 49 24 57
22 57 -22z m1363 23 c18 -9 33 -17 34 -19 2 -1 -4 -23 -13 -48 l-16 -46 -34
27 c-33 26 -41 52 -28 86 8 20 17 20 57 0z m-163 -42 c0 -21 -26 2 -33 29 -5
20 -5 20 14 3 10 -9 19 -24 19 -32z m-1060 31 c0 -5 -7 -17 -15 -27 -15 -20
-15 -20 -15 0 0 12 3 24 7 27 9 9 23 9 23 0z m-663 -51 c12 -20 38 -58 57 -83
l35 -45 -70 -58 -71 -58 -29 28 c-36 35 -89 115 -89 135 0 9 14 26 31 40 63
49 104 78 109 79 3 0 15 -17 27 -38z m433 -58 c0 -7 -16 -26 -36 -44 -41 -35
-43 -34 -83 32 l-22 37 23 14 c13 8 37 22 53 30 l30 16 17 -37 c10 -20 18 -42
18 -48z m1570 59 c27 -16 50 -31 50 -35 0 -10 -54 -98 -60 -98 -3 1 -22 15
-43 33 l-38 33 18 47 c9 26 19 47 20 47 2 0 25 -12 53 -27z m403 5 c65 -45
107 -83 107 -98 0 -18 -96 -150 -110 -150 -8 0 -75 55 -128 105 -11 10 -8 21
22 59 19 25 43 60 53 76 9 17 19 30 21 30 2 0 18 -10 35 -22z m-1803 -11 c0
-13 -9 -32 -20 -42 -20 -18 -20 -17 -20 11 0 29 15 54 32 54 4 0 8 -11 8 -23z
m1174 8 c13 -10 17 -21 12 -40 -5 -21 -10 -24 -20 -16 -14 12 -28 71 -17 71 3
0 14 -7 25 -15z m-1254 -126 l-23 -32 -15 38 c-15 38 -15 38 14 63 l29 25 9
-31 c7 -25 4 -36 -14 -63z m1332 68 c26 -22 26 -23 11 -59 l-15 -38 -19 24
c-18 23 -27 96 -11 96 4 -1 19 -11 34 -23z m-1564 -143 c-24 -24 -48 -44 -54
-44 -6 0 -21 12 -34 28 -12 15 -34 39 -48 54 l-24 27 68 44 69 45 33 -56 33
-55 -43 -43z m1864 109 c32 -21 58 -42 58 -46 0 -5 -22 -32 -49 -60 l-49 -51
-45 39 c-25 22 -46 45 -46 52 -1 16 52 102 63 103 5 0 36 -17 68 -37z m-1571
-46 c-13 -13 -15 11 -4 40 7 16 8 15 11 -6 2 -13 -1 -28 -7 -34z m1189 15 c0
-21 -2 -24 -10 -12 -13 20 -13 53 0 45 6 -3 10 -18 10 -33z m-1876 -110 l36
-39 -25 -23 c-14 -13 -42 -48 -62 -77 l-37 -54 -23 38 c-43 70 -44 178 -3 246
l22 37 28 -44 c16 -24 44 -62 64 -84z m556 124 c0 -2 6 -19 14 -37 14 -33 13
-36 -13 -68 l-27 -33 -28 43 -29 43 34 28 c30 25 49 35 49 24z m1489 -22 c38
-32 38 -41 4 -82 l-28 -33 -23 35 c-22 32 -23 38 -11 70 7 20 16 36 20 36 4 0
21 -12 38 -26z m647 -78 c11 -32 14 -63 10 -92 -6 -45 -41 -125 -54 -123 -4 0
-32 35 -64 77 l-56 77 24 30 c14 17 39 51 57 77 l32 47 17 -22 c10 -12 25 -44
34 -71z m-2036 32 c0 -18 -4 -40 -10 -48 -7 -11 -11 -9 -19 13 -8 20 -7 33 2
47 17 29 27 24 27 -12z m1275 -29 c-7 -31 -8 -32 -21 -14 -26 35 -14 89 14 61
10 -10 12 -24 7 -47z m-1615 -67 c0 -4 -24 -32 -54 -61 l-54 -53 -62 54 c-35
29 -64 57 -64 63 0 5 29 34 64 64 l64 54 53 -57 c29 -31 53 -60 53 -64z m2078
81 c25 -21 56 -47 69 -58 l25 -21 -72 -59 -71 -58 -53 59 -53 59 51 57 c28 32
52 58 55 58 2 0 24 -17 49 -37z m-1909 -37 l30 -43 -31 -42 c-33 -46 -31 -46
-96 13 l-33 30 48 43 c27 23 49 43 50 43 1 0 16 -20 32 -44z m1669 1 l42 -43
-45 -44 -46 -45 -19 25 c-43 56 -44 64 -15 109 15 22 31 41 34 41 4 0 26 -19
49 -43z m-1544 -14 c10 -21 11 -33 3 -53 -16 -37 -16 -37 -41 -5 l-24 30 20
27 c11 16 21 28 23 28 3 0 11 -12 19 -27z m1379 -54 c-10 -16 -22 -28 -27 -26
-18 6 -27 53 -16 83 l12 29 24 -28 c24 -28 24 -29 7 -58z m-1313 24 c-1 -31
-3 -35 -11 -20 -6 9 -7 26 -4 37 10 30 15 24 15 -17z m1220 0 c0 -20 -3 -24
-11 -16 -7 7 -9 19 -6 27 10 24 17 19 17 -11z m-1771 -80 l68 -57 -36 -51
c-20 -27 -45 -63 -54 -78 -18 -28 -18 -28 -48 -10 -17 10 -51 36 -77 59 l-46
40 24 40 c24 38 88 114 97 114 2 0 35 -26 72 -57z m267 13 l46 -43 -32 -52
c-17 -28 -35 -51 -39 -51 -4 0 -36 18 -70 40 l-62 40 47 55 c26 30 52 55 56
55 5 0 29 -20 54 -44z m167 11 c24 -32 24 -33 8 -74 l-16 -41 -39 32 -38 33
27 41 c15 23 29 42 30 42 2 0 14 -15 28 -33z m1493 -7 l27 -41 -28 -29 c-37
-39 -48 -38 -64 6 -12 32 -11 38 11 70 12 18 24 34 25 34 2 0 15 -18 29 -40z
m218 -11 c25 -28 46 -54 46 -58 0 -7 -116 -81 -128 -81 -4 0 -21 23 -38 51
l-31 51 46 44 c25 24 49 44 53 44 3 0 27 -23 52 -51z m268 19 c16 -18 43 -55
60 -82 l32 -49 -46 -41 c-26 -23 -60 -49 -76 -58 l-29 -17 -54 77 c-30 42 -54
81 -54 85 0 8 125 117 134 117 3 0 18 -15 33 -32z m-1884 -52 l-3 -30 -17 26
c-15 22 -16 32 -7 55 l11 28 10 -25 c5 -13 8 -38 6 -54z m1272 -1 c-7 -8 -16
-15 -21 -15 -13 0 -11 48 3 73 12 21 12 21 21 -10 7 -24 6 -37 -3 -48z m-1281
-75 c0 -8 -4 -23 -8 -34 -7 -17 -9 -17 -35 6 -28 23 -28 25 -15 62 l14 38 22
-29 c13 -15 23 -35 22 -43z m51 22 c0 -21 -2 -24 -10 -12 -13 20 -13 53 0 45
6 -3 10 -18 10 -33z m1171 -15 c-13 -13 -15 11 -4 40 7 16 8 15 11 -6 2 -13
-1 -28 -7 -34z m106 12 c10 -24 8 -29 -17 -48 -16 -11 -32 -21 -35 -21 -13 0
-3 75 12 92 18 20 23 17 40 -23z m-1458 -13 c24 -25 24 -26 7 -71 -10 -25 -19
-45 -21 -45 -7 0 -95 52 -99 59 -3 4 9 28 25 54 32 52 42 53 88 3z m1614 -1
c15 -25 27 -49 27 -53 0 -8 -100 -65 -105 -60 -1 2 -9 24 -18 50 l-15 46 36
30 c21 17 39 31 42 31 3 1 17 -19 33 -44z m-1809 -136 c-19 -38 -40 -69 -46
-69 -7 0 -47 16 -90 36 -88 42 -87 33 -14 132 l46 62 70 -46 69 -46 -35 -69z
m2100 51 l37 -55 -78 -37 c-43 -21 -83 -38 -90 -38 -6 0 -29 33 -51 74 l-39
75 70 44 70 45 22 -27 c12 -14 38 -51 59 -81z m-2376 -40 l21 -15 -36 -92 -37
-93 -29 28 c-60 55 -81 146 -56 235 l10 37 52 -42 c29 -24 63 -50 75 -58z
m662 43 c0 -27 -7 -29 -30 -8 -11 10 -15 25 -12 41 4 24 5 24 23 8 11 -9 19
-28 19 -41z m1190 25 c0 -18 -24 -47 -41 -48 -9 0 2 53 13 67 14 17 28 7 28
-19z m124 -53 c5 -17 -2 -25 -38 -42 l-44 -22 -7 40 c-7 38 -4 43 26 69 l34
29 11 -27 c6 -15 14 -36 18 -47z m638 -25 c1 -63 -21 -122 -59 -162 -30 -32
-43 -35 -43 -12 0 8 -14 47 -31 87 l-30 72 22 15 c13 8 46 34 74 56 48 40 50
41 58 20 5 -11 9 -46 9 -76z m-2058 69 c20 -16 26 -29 26 -60 0 -44 -5 -46
-55 -22 -38 18 -40 25 -24 72 13 37 18 38 53 10z m-159 -46 c31 -15 54 -32 52
-38 -2 -5 -10 -34 -17 -62 -8 -29 -18 -53 -24 -53 -6 0 -41 10 -78 21 l-67 21
35 69 c19 38 36 69 39 69 2 0 30 -12 60 -27z m1773 -38 c18 -36 32 -70 32 -75
0 -8 -117 -50 -140 -50 -8 0 -46 128 -39 134 16 13 96 56 104 56 6 0 25 -29
43 -65z m-407 11 c-21 -20 -22 -20 -15 -1 11 32 28 49 32 35 3 -7 -5 -22 -17
-34z m-1047 18 c4 -9 4 -19 2 -21 -8 -8 -26 8 -26 23 0 19 16 18 24 -2z m-67
-16 c13 -12 23 -33 23 -50 0 -26 -1 -27 -27 -16 -42 18 -46 23 -38 57 8 37 12
38 42 9z m1211 -15 c-2 -31 -8 -39 -35 -50 l-32 -13 5 33 c6 31 36 67 56 67 5
0 8 -17 6 -37z m-1724 -44 c48 -22 86 -46 84 -52 -2 -7 -16 -49 -33 -95 -35
-95 -29 -94 -147 -40 -63 29 -67 33 -62 57 7 28 64 171 69 171 1 0 41 -18 89
-41z m391 19 l46 -22 -3 -53 c-2 -29 -7 -53 -11 -53 -16 0 -102 23 -109 29 -7
6 20 121 28 121 2 0 24 -10 49 -22z m1488 -55 l16 -53 -37 -9 c-99 -25 -92
-26 -93 24 -1 25 -2 51 -3 57 -1 18 87 59 95 44 4 -6 14 -35 22 -63z m446 -12
c17 -44 31 -86 31 -94 0 -15 -119 -74 -159 -79 -20 -3 -26 6 -52 77 -16 44
-29 83 -29 87 0 6 154 85 171 87 3 1 20 -35 38 -78z m-1738 56 c18 -14 35 -57
22 -57 -17 0 -40 25 -46 48 -6 25 0 27 24 9z m1049 -12 c0 -18 -7 -28 -26 -35
-14 -6 -27 -10 -29 -10 -8 0 8 35 23 53 21 24 32 21 32 -8z m-1133 -27 c36
-16 43 -26 43 -65 0 -35 -5 -37 -59 -27 -31 6 -32 9 -30 48 4 62 4 62 46 44z
m1233 -42 l0 -53 -41 -7 c-23 -4 -44 -5 -46 -2 -3 3 -2 23 2 45 5 30 14 45 33
56 46 24 52 20 52 -39z m-1050 2 c0 -5 -9 -4 -20 2 -11 6 -20 18 -20 27 0 14
2 14 20 -2 11 -10 20 -22 20 -27z m865 23 c-3 -6 -15 -16 -26 -22 -18 -9 -19
-9 -10 9 10 19 32 33 40 26 1 -1 0 -7 -4 -13z m-1289 -53 c6 -6 -22 -158 -31
-166 -6 -6 -155 18 -172 27 -11 6 3 58 45 163 l11 26 70 -22 c39 -12 74 -25
77 -28z m382 -17 l13 -33 -38 7 c-21 4 -39 8 -39 8 -1 1 -4 19 -7 39 l-5 37
31 -12 c20 -8 36 -25 45 -46z m977 11 c-6 -38 -9 -40 -45 -44 l-38 -3 14 34
c8 19 16 35 17 36 25 12 53 22 55 19 2 -1 1 -21 -3 -42z m488 -14 c37 -95 40
-116 20 -122 -27 -8 -134 -26 -153 -26 -12 0 -20 16 -28 65 -7 35 -15 71 -18
79 -4 10 15 21 68 39 40 14 76 26 79 26 4 1 18 -27 32 -61z m-1410 11 c12 -6
28 -19 35 -30 11 -17 9 -19 -12 -19 -24 0 -38 12 -49 43 -7 20 -6 20 26 6z
m817 -28 c-10 -20 -60 -30 -60 -13 0 11 30 38 50 44 20 7 24 -6 10 -31z
m-1127 8 l37 -10 0 -69 0 -70 -74 0 c-41 0 -78 5 -81 10 -6 9 7 92 22 143 5
20 6 20 96 -4z m1529 -61 c9 -40 14 -76 11 -80 -2 -5 -38 -8 -79 -8 l-74 0 -2
45 c-1 25 -2 55 -2 67 -1 18 7 24 49 34 83 19 80 21 97 -58z m-1107 32 c3 -6
0 -10 -7 -10 -15 0 -38 19 -38 32 0 10 36 -8 45 -22z m613 10 c-7 -11 -21 -20
-31 -20 -30 0 1 30 41 39 1 1 -3 -8 -10 -19z m-906 -6 c31 -5 38 -11 42 -35 4
-16 9 -42 12 -59 l6 -30 -61 0 -61 0 0 65 c0 70 -1 69 62 59z m1228 -59 l0
-65 -61 0 -62 0 7 52 c4 29 9 54 10 56 3 2 71 17 99 21 4 1 7 -28 7 -64z
m-1098 36 c15 -6 30 -25 40 -50 l16 -41 -48 0 c-27 0 -51 3 -53 8 -3 4 -8 26
-12 50 -6 38 -5 42 13 42 12 0 31 -4 44 -9z m954 -46 l-7 -45 -50 0 c-27 0
-49 2 -49 5 0 2 7 22 16 44 14 35 20 40 52 43 21 2 39 2 41 1 2 -1 0 -23 -3
-48z m748 -73 c-19 -52 -65 -107 -106 -128 -17 -9 -31 -14 -33 -12 -8 9 -24
173 -18 178 5 4 31 15 58 25 28 10 64 27 80 37 l30 18 3 -37 c2 -20 -4 -56
-14 -81z m-2433 76 c35 -14 72 -29 83 -32 12 -4 16 -12 11 -24 -4 -9 -9 -50
-12 -89 -3 -40 -9 -73 -13 -73 -23 0 -106 70 -124 104 -21 41 -36 151 -19 145
5 -2 38 -16 74 -31z m868 6 c26 -33 19 -44 -24 -44 -28 0 -35 5 -44 31 -6 18
-11 34 -11 35 0 2 13 4 29 4 20 0 36 -9 50 -26z m698 -6 c-14 -35 -33 -44 -73
-34 l-24 6 22 30 c16 23 30 30 55 30 l33 0 -13 -32z m-603 3 c16 -18 16 -19
-8 -23 -23 -5 -56 16 -56 35 0 15 48 6 64 -12z m64 13 c12 -4 22 -10 22 -15 0
-15 -37 -10 -50 6 -13 16 -8 18 28 9z m330 -10 c-8 -9 -24 -14 -34 -11 -17 3
-16 5 6 15 36 16 47 14 28 -4z m102 -3 c-14 -28 -23 -31 -55 -23 l-29 8 24 17
c14 9 35 17 48 17 19 0 21 -3 12 -19z m-262 -22 c-12 -7 -24 -7 -35 0 -15 9
-12 10 17 10 29 0 32 -1 18 -10z m-74 -37 c-22 -12 -29 -11 -52 4 l-27 18 25
6 c14 3 37 2 53 -4 l27 -10 -26 -14z m169 6 c-17 -16 -24 -17 -49 -8 l-29 12
24 12 c12 7 34 11 48 8 24 -5 24 -5 6 -24z m-255 -7 c12 -11 22 -22 22 -24 0
-3 -16 -11 -35 -17 -32 -11 -37 -10 -55 12 -25 30 -25 36 3 41 38 7 41 7 65
-12z m359 11 l23 -7 -24 -29 c-22 -28 -25 -29 -55 -17 -37 16 -39 25 -9 45 24
17 30 18 65 8z m-1174 -16 c43 -8 81 -16 84 -19 3 -3 2 -45 -2 -93 l-8 -87
-77 6 c-109 7 -122 16 -116 75 12 102 19 132 30 132 6 0 46 -7 89 -14z m2021
-3 c4 -9 10 -52 13 -94 l6 -77 -52 -11 c-29 -6 -74 -11 -100 -11 l-48 0 -6 88
c-3 48 -4 88 -2 90 3 3 142 29 166 31 9 0 20 -7 23 -16z m-1305 -24 c13 -17
21 -32 19 -33 -1 -2 -22 -10 -45 -19 l-43 -17 -20 40 c-24 48 -24 47 -2 53 46
12 69 6 91 -24z m284 14 c24 -7 21 -19 -12 -42 l-28 -20 -32 24 -33 23 29 16
c15 8 35 13 43 9 8 -3 23 -8 33 -10z m299 9 c15 -6 14 -11 -5 -48 l-22 -41
-48 16 -47 16 22 32 c23 33 58 42 100 25z m-704 -47 c12 -25 22 -48 22 -50 0
-7 -111 -37 -116 -32 -3 3 -11 30 -18 60 l-13 56 41 4 c23 2 46 4 52 5 5 1 20
-18 32 -43z m850 30 c5 -4 -20 -99 -28 -108 -4 -5 -32 -1 -63 9 l-54 17 21 48
21 49 50 -7 c28 -3 51 -7 53 -8z m-1162 -9 c1 0 4 -35 6 -77 l5 -77 -36 -6
c-20 -3 -62 -6 -93 -6 l-58 0 0 53 c0 28 3 69 6 90 l7 37 81 -6 c44 -4 82 -7
82 -8z m163 -8 c5 -13 12 -42 16 -65 l7 -42 -39 -10 c-21 -5 -55 -13 -75 -17
l-38 -6 0 75 0 76 48 4 c26 2 53 4 60 5 7 1 16 -8 21 -20z m1119 12 l42 0 0
-52 c0 -29 -3 -64 -7 -76 -6 -25 -22 -26 -116 -1 -43 11 -42 4 -16 102 9 33
13 38 32 33 12 -3 41 -6 65 -6z m236 -7 c2 -10 8 -51 11 -90 l7 -73 -58 0
c-33 0 -76 3 -97 7 l-39 6 4 76 3 76 60 6 c33 3 70 6 82 7 13 1 24 -5 27 -15z
m-678 -33 c10 0 1 -18 -25 -48 -26 -31 -31 -33 -52 -22 -13 7 -32 20 -42 28
-18 16 -17 18 15 43 31 26 34 27 67 13 18 -8 35 -14 37 -14z m-215 -4 l28 -24
-41 -28 -41 -29 -34 40 -34 40 28 12 c42 18 62 16 94 -11z m-111 -56 c18 -23
31 -42 29 -43 -2 -2 -16 -11 -31 -20 -16 -9 -39 -24 -52 -32 -23 -15 -24 -14
-55 44 l-31 59 42 15 c61 22 63 21 98 -23z m420 24 c22 -9 40 -18 40 -20 0
-17 -53 -104 -63 -104 -6 0 -34 14 -60 31 l-48 30 33 39 c38 44 44 46 98 24z
m-210 -41 l38 -28 -35 -42 c-20 -24 -40 -43 -46 -43 -13 0 -87 70 -87 82 0 9
71 58 83 58 5 0 26 -12 47 -27z m-347 -38 c15 -31 27 -60 27 -65 0 -13 -118
-72 -130 -65 -11 7 -51 137 -44 144 4 5 97 37 114 40 3 1 18 -24 33 -54z m742
14 c6 -6 1 -34 -14 -79 -22 -62 -27 -70 -45 -64 -28 9 -116 58 -116 65 0 3 14
31 30 62 l31 56 52 -16 c29 -8 56 -19 62 -24z m-897 -86 c26 -86 29 -81 -53
-112 -84 -31 -92 -33 -98 -18 -11 29 -30 167 -24 173 6 7 109 31 137 33 10 1
22 -23 38 -76z m1023 61 c68 -15 70 -17 65 -42 -2 -15 -10 -57 -16 -94 -7 -38
-15 -68 -19 -68 -8 0 -162 58 -167 63 -7 7 48 157 57 157 6 0 42 -7 80 -16z
m-641 -144 c-30 -27 -60 -49 -65 -50 -6 0 -27 28 -48 61 -43 68 -43 67 29 109
l46 27 46 -49 46 -49 -54 -49z m266 98 l33 -20 -39 -61 c-21 -34 -43 -63 -49
-65 -12 -4 -111 86 -111 100 0 5 19 29 42 54 41 43 42 44 66 28 14 -9 40 -25
58 -36z m-1145 16 l67 -7 6 -68 c4 -37 11 -82 16 -99 8 -29 8 -30 -18 -24 -80
20 -162 92 -181 161 -15 54 -14 56 17 49 15 -3 57 -9 93 -12z m318 -171 c1
-14 -83 -33 -148 -33 l-48 0 -12 57 c-6 31 -11 75 -11 98 l0 42 93 9 92 9 17
-85 c9 -47 17 -90 17 -97z m1698 152 c-13 -77 -78 -145 -163 -171 -46 -14 -46
-14 -40 9 3 12 9 57 13 100 l6 77 41 1 c23 0 59 4 81 8 68 15 68 15 62 -24z
m-239 15 l34 0 -7 -62 c-4 -35 -11 -80 -17 -100 -11 -36 -13 -38 -53 -38 -69
0 -157 21 -151 36 3 7 11 50 18 95 l13 81 65 -6 c36 -3 80 -6 98 -6z m-1033
-112 c22 -35 41 -66 43 -70 5 -11 -139 -108 -150 -101 -9 5 -78 146 -78 158 0
5 130 74 140 75 3 0 23 -28 45 -62z m533 27 c34 -16 61 -35 61 -42 1 -18 -67
-163 -76 -163 -19 1 -144 102 -140 114 12 30 79 127 86 124 5 -2 36 -16 69
-33z m-208 -106 c0 -10 -72 -100 -98 -123 -26 -23 -31 -20 -95 63 l-47 59 61
56 60 56 60 -52 c32 -29 59 -56 59 -59z m-477 -126 c-24 -18 -120 -53 -144
-53 -15 0 -27 16 -49 63 -52 112 -54 108 47 142 l88 31 38 -86 c35 -79 36 -86
20 -97z m947 102 c0 -11 -15 -49 -33 -85 -30 -60 -34 -65 -63 -64 -33 2 -157
53 -151 63 8 15 60 128 67 147 l9 22 85 -32 c69 -25 86 -35 86 -51z m-1178
-70 c16 -38 32 -76 35 -84 5 -11 -6 -13 -55 -9 -76 5 -144 45 -179 105 l-24
41 73 10 c119 16 117 17 150 -63z m507 1 l61 -74 -36 -31 c-19 -18 -54 -43
-76 -57 l-40 -26 -24 23 c-30 28 -99 127 -93 134 4 3 141 102 145 104 1 1 29
-32 63 -73z m293 29 c34 -26 68 -50 77 -54 13 -8 11 -15 -14 -47 -15 -22 -44
-56 -63 -76 l-36 -37 -35 21 c-20 12 -55 37 -79 56 l-42 35 38 41 c21 22 49
56 62 74 13 17 25 32 27 32 2 0 31 -20 65 -45z m541 29 c31 -4 57 -10 57 -15
0 -4 -15 -27 -32 -50 -44 -57 -106 -89 -173 -89 l-52 0 36 86 36 86 35 -6 c19
-3 61 -8 93 -12z m-1000 -203 c20 -25 37 -49 37 -52 0 -24 -133 -24 -185 0
-43 20 -102 76 -88 84 4 2 31 12 58 21 28 9 61 23 75 31 23 14 26 13 45 -12
11 -14 37 -46 58 -72z m625 75 c26 -13 64 -29 85 -36 l39 -12 -24 -25 c-57
-61 -171 -90 -243 -63 l-26 10 44 53 c24 28 50 62 56 75 14 27 11 27 69 -2z
m-311 -76 c36 -27 70 -50 75 -50 19 0 -6 -23 -46 -41 -58 -26 -130 -24 -195 6
l-53 25 60 40 c33 22 65 47 72 55 7 8 14 15 17 15 2 0 34 -22 70 -50z"/>
<path d="M931 3936 l-22 -24 61 -121 c34 -67 60 -124 58 -127 -3 -2 -61 20
-129 50 l-124 53 -22 -20 c-31 -28 -29 -40 15 -77 20 -18 66 -60 102 -94 123
-115 118 -112 136 -94 15 15 10 22 -57 86 -41 38 -87 81 -104 96 l-30 27 35
-14 c19 -8 74 -31 122 -52 139 -60 151 -41 73 115 -31 62 -52 110 -46 109 5
-2 48 -42 96 -88 85 -82 87 -83 106 -65 21 19 20 19 -68 101 -48 46 -109 101
-134 123 l-46 39 -22 -23z"/>
<path d="M3765 3794 c-71 -63 -132 -119 -133 -125 -2 -5 2 -16 8 -24 12 -15
44 9 193 144 16 14 26 19 23 11 -12 -34 -76 -279 -76 -292 0 -8 6 -23 14 -33
13 -18 22 -11 150 104 111 100 134 126 125 137 -6 8 -15 14 -19 14 -4 0 -51
-39 -104 -86 -53 -47 -96 -82 -96 -78 0 5 18 76 41 158 40 144 40 149 22 167
-17 18 -22 15 -148 -97z"/>
<path d="M631 3579 c-7 -12 -9 -24 -4 -28 81 -58 285 -191 292 -191 6 0 15 9
21 20 9 17 -4 29 -140 120 -82 55 -151 100 -152 100 -2 0 -9 -10 -17 -21z"/>
<path d="M4121 3381 c-136 -47 -183 -141 -127 -254 35 -73 63 -98 96 -85 l25
9 -26 22 c-98 80 -88 186 22 241 29 14 65 26 80 26 67 0 114 -50 125 -134 5
-35 10 -46 21 -42 8 4 19 6 24 6 13 0 11 23 -7 77 -41 122 -126 171 -233 134z"/>
<path d="M485 3319 c-8 -25 -15 -19 78 -68 42 -23 111 -59 152 -81 42 -22 77
-40 78 -40 2 0 25 43 52 95 42 81 48 97 35 105 -8 5 -18 10 -21 10 -3 0 -20
-31 -39 -70 -19 -38 -35 -70 -37 -70 -2 0 -64 32 -137 70 -74 39 -138 70 -144
70 -6 0 -14 -9 -17 -21z"/>
<path d="M415 3159 c-4 -11 -5 -22 -3 -25 3 -2 78 -32 167 -66 135 -51 164
-59 172 -47 15 24 10 37 -18 47 -16 6 -86 33 -158 61 -71 28 -135 51 -142 51
-6 0 -15 -9 -18 -21z"/>
<path d="M4242 3020 c-89 -26 -165 -50 -168 -53 -6 -6 43 -188 54 -199 4 -4
14 -3 21 2 13 7 12 19 -6 83 l-21 75 60 17 c33 9 61 15 62 13 2 -2 10 -28 18
-58 12 -45 19 -54 34 -52 26 5 25 2 9 57 -8 26 -15 54 -15 60 0 13 85 39 99
31 4 -3 16 -35 26 -71 18 -67 21 -71 43 -56 11 7 9 26 -13 105 -15 53 -30 96
-34 95 -3 0 -79 -22 -169 -49z"/>
<path d="M372 2988 c-25 -27 -60 -145 -46 -157 11 -11 335 -94 341 -88 9 10
33 113 33 144 0 45 -9 62 -41 78 -41 22 -73 18 -108 -11 l-31 -26 -9 25 c-22
56 -100 76 -139 35z m102 -54 c15 -15 22 -74 10 -86 -5 -6 -102 16 -111 25 -2
3 3 21 11 41 12 30 20 36 45 36 16 0 37 -7 45 -16z m164 -26 c14 -14 16 -76 4
-96 -6 -9 -16 -10 -38 -3 -16 5 -41 12 -56 15 -35 8 -35 26 -2 65 27 33 70 41
92 19z"/>
<path d="M4295 2740 c-82 -10 -151 -18 -152 -19 -2 -1 -3 -10 -3 -21 0 -24 22
-25 153 -9 48 6 92 9 98 7 5 -2 -44 -48 -110 -102 -89 -72 -121 -104 -121
-120 0 -13 2 -25 5 -28 3 -2 51 1 107 8 57 6 138 15 181 19 76 7 87 14 68 43
-7 11 -30 11 -132 -1 -68 -8 -125 -13 -127 -12 -3 2 42 40 176 150 49 39 62
56 62 78 0 32 7 32 -205 7z"/>
<path d="M277 2554 c-4 -4 -7 -74 -7 -156 0 -138 1 -148 19 -148 19 0 31 34
31 91 l0 28 158 3 157 3 3 28 3 27 -160 0 -161 0 -1 50 c-1 28 -2 56 -3 62 -1
14 -28 22 -39 12z"/>
<path d="M4486 2353 c-3 -21 -6 -51 -6 -67 l0 -29 -57 6 c-32 4 -104 9 -159
13 -99 6 -102 6 -109 -16 -4 -12 -5 -24 -2 -27 3 -2 74 -10 159 -16 l153 -12
0 -62 c0 -61 9 -79 32 -65 11 7 36 289 27 303 -13 21 -32 6 -38 -28z"/>
<path d="M471 2155 c-84 -51 -158 -98 -163 -103 -13 -13 9 -62 29 -62 28 0
317 -62 326 -70 5 -4 -53 -63 -127 -130 -75 -68 -136 -126 -136 -130 0 -3 6
-14 13 -24 11 -15 38 -18 205 -23 105 -3 192 -3 192 1 0 4 -5 16 -10 27 -9 15
-22 19 -63 19 l-53 0 -24 70 -24 70 36 37 c36 38 36 38 25 85 -11 47 -12 48
-64 58 -58 12 -55 8 -71 108 l-9 53 43 25 c36 21 44 31 44 55 0 16 -3 29 -7
29 -5 0 -77 -43 -162 -95z m53 -82 c12 -74 15 -72 -69 -55 l-75 15 62 38 c35
21 66 38 69 39 4 0 9 -17 13 -37z m99 -365 l16 -48 -75 0 c-41 0 -74 3 -74 6
0 11 105 102 111 96 4 -4 13 -28 22 -54z"/>
<path d="M4108 1968 c-20 -87 -22 -104 -10 -112 20 -12 27 1 46 80 l18 71 60
-15 c60 -15 60 -15 53 -46 -19 -89 -19 -96 2 -96 16 0 22 11 32 56 l13 56 46
-7 c26 -4 51 -10 55 -14 4 -5 1 -38 -7 -75 -20 -82 -20 -76 4 -76 14 0 22 11
30 38 18 65 34 151 29 156 -3 3 -74 21 -159 41 -85 20 -162 38 -172 41 -13 4
-20 -13 -40 -98z"/>
<path d="M4059 1805 c-1 -8 -2 -20 -3 -26 -1 -6 26 -22 59 -36 74 -31 78 -35
63 -56 -8 -11 -45 -23 -100 -34 -73 -14 -88 -20 -97 -40 -6 -13 -11 -28 -11
-32 0 -7 122 16 183 35 13 4 17 0 17 -19 0 -34 34 -73 75 -87 52 -17 84 3 117
72 49 100 55 93 -127 169 -88 38 -163 68 -167 69 -5 0 -9 -7 -9 -15z m232
-136 c27 -12 49 -26 49 -31 0 -19 -34 -68 -51 -73 -24 -8 -67 14 -75 37 -8 26
4 88 17 88 6 0 33 -10 60 -21z"/>
<path d="M725 1548 c-30 -26 -44 -78 -45 -158 0 -31 -5 -61 -12 -68 -32 -32
-82 5 -95 71 l-8 39 -23 -18 c-22 -18 -22 -21 -8 -54 23 -55 54 -89 89 -95 75
-14 117 34 117 134 0 77 12 109 46 117 35 9 64 -21 84 -86 15 -49 15 -49 37
-32 l23 17 -24 50 c-45 97 -123 132 -181 83z"/>
<path d="M4005 1403 c-19 -18 -19 -16 5 -63 27 -53 26 -55 -16 -31 -44 26 -70
27 -84 2 -12 -24 13 -54 39 -47 9 3 30 8 46 12 l30 7 -37 -40 c-42 -43 -45
-54 -24 -72 25 -21 55 4 62 49 8 46 21 52 30 13 9 -39 23 -53 49 -53 49 0 41
53 -12 75 -43 18 -35 35 17 35 44 0 65 22 49 52 -14 25 -41 22 -69 -7 -34 -36
-40 -31 -33 24 5 43 3 49 -16 54 -12 3 -28 -1 -36 -10z"/>
<path d="M3679 1197 c-79 -53 -101 -133 -51 -187 32 -36 60 -40 155 -20 78 16
100 9 105 -33 3 -22 -5 -32 -42 -59 -35 -24 -43 -34 -35 -45 17 -19 34 -16 69
13 65 55 77 118 31 165 -34 34 -51 35 -148 12 -69 -16 -73 -16 -93 2 -31 28
-26 70 13 98 17 14 42 28 55 32 22 6 23 8 6 26 -22 24 -24 24 -65 -4z"/>
<path d="M956 1154 c-19 -19 -20 -34 -3 -59 8 -11 17 -28 20 -39 7 -17 5 -17
-28 3 -42 24 -68 27 -84 7 -13 -16 -6 -42 14 -50 8 -3 29 -1 47 5 53 15 54 11
14 -30 -29 -30 -36 -44 -31 -60 13 -43 56 -19 71 41 l11 43 19 -40 c14 -30 26
-41 45 -43 17 -2 29 3 32 12 10 26 -3 46 -41 62 -41 17 -36 27 16 31 44 3 66
27 51 54 -14 28 -39 23 -77 -13 l-33 -33 7 52 c6 45 4 52 -14 62 -16 9 -24 8
-36 -5z"/>
<path d="M3490 1015 c-15 -18 -17 -13 104 -165 55 -69 101 -127 103 -129 2 -3
13 4 24 15 20 20 20 20 -91 157 -61 75 -115 137 -119 137 -5 0 -14 -7 -21 -15z"/>
<path d="M1338 938 c-82 -22 -179 -171 -164 -253 21 -108 126 -126 215 -36
108 108 120 247 26 287 -19 8 -36 14 -37 13 -2 -1 -20 -6 -40 -11z m82 -53
c28 -34 2 -115 -61 -196 -40 -50 -81 -67 -114 -45 -48 32 -21 128 60 213 45
46 90 58 115 28z"/>
<path d="M3388 938 c-15 -12 -10 -25 48 -122 36 -59 63 -110 61 -113 -3 -2
-65 26 -138 63 -109 54 -138 65 -158 58 -14 -5 -24 -13 -24 -17 2 -21 178
-307 189 -307 6 0 16 6 22 13 8 9 -8 42 -58 125 -38 61 -67 112 -64 112 2 0
67 -32 144 -70 116 -58 144 -69 160 -60 11 6 20 16 20 22 0 14 -172 307 -181
308 -3 0 -12 -6 -21 -12z"/>
<path d="M1580 800 c0 -12 11 -25 29 -32 l29 -13 -65 -149 c-44 -103 -60 -152
-52 -157 6 -3 32 -9 58 -13 37 -5 48 -3 59 11 11 16 9 19 -18 24 -17 4 -33 9
-36 12 -3 3 18 60 47 127 44 101 56 120 71 116 58 -19 58 -19 58 2 0 15 -19
28 -84 56 -47 20 -87 36 -90 36 -3 0 -6 -9 -6 -20z"/>
<path d="M2962 735 c-61 -19 -112 -60 -105 -85 3 -11 7 -20 9 -20 2 0 23 13
45 30 83 60 162 45 206 -39 25 -48 31 -127 12 -163 -15 -28 -85 -58 -137 -58
-40 0 -43 -2 -36 -22 9 -33 8 -32 75 -18 71 15 114 42 147 90 21 30 23 44 19
95 -7 94 -54 169 -120 194 -36 14 -61 13 -115 -4z"/>
<path d="M1870 652 c-64 -64 -90 -197 -52 -272 23 -48 75 -73 123 -60 44 12
72 41 97 100 61 141 20 270 -86 270 -38 0 -50 -5 -82 -38z m117 -10 c48 -30
29 -192 -31 -259 -43 -50 -106 -16 -106 57 0 69 44 192 72 203 20 8 52 8 65
-1z"/>
<path d="M2658 653 c-67 -13 -78 -18 -78 -35 0 -22 3 -22 126 -2 l41 6 8 -57
c8 -67 5 -70 -67 -79 -39 -6 -49 -10 -46 -24 4 -18 26 -20 98 -11 35 4 35 4
44 -44 4 -26 6 -51 2 -54 -3 -4 -34 -11 -69 -18 -53 -9 -62 -14 -65 -34 -3
-21 -1 -23 20 -18 12 4 58 12 101 19 59 9 77 15 77 28 0 18 -48 296 -56 323
-6 20 -28 20 -136 0z"/>
<path d="M2170 621 c0 -22 26 -31 98 -31 31 0 52 -4 52 -11 0 -6 -17 -28 -38
-48 -22 -20 -57 -54 -80 -75 -63 -59 -66 -133 -9 -171 57 -37 159 -28 165 14
3 21 1 23 -20 17 -62 -18 -79 -18 -103 -2 -19 13 -25 25 -25 53 0 32 9 44 90
122 68 65 90 93 90 112 0 25 -3 26 -67 32 -122 12 -153 9 -153 -12z"/>
</g>
</svg>
